<?xml version="1.0" encoding="utf-8"?>
<!-- Generator: Adobe Illustrator 26.5.0, SVG Export Plug-In . SVG Version: 6.00 Build 0)  -->
<svg version="1.0" id="katman_1" xmlns="http://www.w3.org/2000/svg" xmlns:xlink="http://www.w3.org/1999/xlink" x="0px" y="0px"
	 viewBox="0 0 1190.55 841.89" style="enable-background:new 0 0 1190.55 841.89;" xml:space="preserve">
<style type="text/css">
	.st0{fill-rule:evenodd;clip-rule:evenodd;fill:#2A1435;}
	.st1{fill-rule:evenodd;clip-rule:evenodd;fill:url(#SVGID_1_);}
	.st2{fill-rule:evenodd;clip-rule:evenodd;fill:url(#SVGID_00000009572841028136330170000008582922657403481271_);}
	.st3{fill-rule:evenodd;clip-rule:evenodd;fill:url(#SVGID_00000088813146157491623700000018340671886215215251_);}
</style>
<path class="st0" d="M784.43,249.31c0.47,0.21,18.92-3.95,55.38-12.47c7.8,24.49-9.6,49.68-38.86,56.28l-16.45,3.71
	c-0.07,0-0.07-47.5-0.07-47.5V249.31z M698.68,267.59l55.52-12.38v206.02h-55.52V267.59z M484.16,489.65l56.07-12.5
	c7.05,5.57,17.18,9.27,33.17,9.27c25.91,0,41.82-11.09,41.82-32.96v-14.17c-12.22,12.63-29.98,20.02-54.04,20.02
	c-52.56,0-91.05-35.73-91.05-78.22s38.5-78.22,91.05-78.22c24.06,0,41.82,7.39,54.04,20.02v-15.79h54.04v146.3
	c0,51.74-48.49,73.62-97.72,73.62c-38.5,0-70.7-12.01-87.73-37.26l0.33-0.16L484.16,489.65z M570.45,416.81
	c26.29,0,44.78-14.48,44.78-35.73c0-21.25-18.5-35.73-44.78-35.73c-26.28,0-44.78,14.48-44.78,35.73
	C525.66,402.33,544.17,416.81,570.45,416.81z M784,461.17V319.79l55.52-12.39v153.77H784z M1003.48,307.24H1059v153.92h-55.52
	v-14.48c-12.22,11.71-30.35,18.79-55.15,18.79c-48.49,0-88.46-35.42-88.46-81.3c0-45.89,39.98-81.3,88.46-81.3
	c24.79,0,42.94,7.08,55.15,18.79v-14.49V307.24z M959.43,421.82c25.54,0,44.05-14.48,44.05-37.57c0-23.1-18.51-37.57-44.05-37.57
	s-44.05,14.48-44.05,37.57C915.39,407.34,933.89,421.82,959.43,421.82z"/>
<linearGradient id="SVGID_1_" gradientUnits="userSpaceOnUse" x1="223.9648" y1="383.9687" x2="325.8387" y2="564.3059" gradientTransform="matrix(1 0 0 -1 0 842.1102)">
	<stop  offset="0" style="stop-color:#5E4595"/>
	<stop  offset="1" style="stop-color:#43267F"/>
</linearGradient>
<path class="st1" d="M269.18,435.09c-38.15,0-69.09-25.54-69.09-57.05S231.02,321,269.18,321c38.16,0,69.09,25.54,69.09,57.05
	S307.34,435.09,269.18,435.09L269.18,435.09z M357.4,290.23c4.68-4.07,8.54-8.89,11.98-14.82c6.55-11.49,8.23-25.16,3.97-38.39
	l-0.04-0.03l-136.38,30.11C176.17,279.08,131,324.21,131,378.13c0,63.01,61.86,114.1,138.18,114.1
	c76.32,0,138.18-51.09,138.18-114.1c0-35.32-19.44-66.89-49.96-87.82"/>
<linearGradient id="SVGID_00000010275445907194978070000008592673328423868065_" gradientUnits="userSpaceOnUse" x1="271.0471" y1="554.3858" x2="214.1787" y2="422.6647" gradientTransform="matrix(1 0 0 -1 0 842.1102)">
	<stop  offset="0" style="stop-color:#5E4595"/>
	<stop  offset="1" style="stop-color:#43267F"/>
</linearGradient>
<path style="fill-rule:evenodd;clip-rule:evenodd;fill:url(#SVGID_00000010275445907194978070000008592673328423868065_);" d="
	M373.32,237.01l-0.02-0.04l-127.27,28.08c-8.09,1.62-26.43,5.47-38.92,11.27c-29.77,15.06-49.63,42.18-49.63,73.13
	c0,45.47,42.85,82.65,97.01,85.51c0.78-0.05,2.34-0.02,3.53-0.16c0.63-0.08,1.27-0.16,1.82-0.25
	c-33.73-3.77-59.73-27.63-59.73-56.52c0-28.04,24.51-51.33,56.79-56.12l72.73-17.41c20.05-6.43,31.22-14.33,39.76-29.1
	c6.55-11.49,8.23-25.16,3.97-38.39"/>
<linearGradient id="SVGID_00000158746304663716545990000000210795607034125185_" gradientUnits="userSpaceOnUse" x1="174.0356" y1="265.0082" x2="371.845" y2="328.0001" gradientTransform="matrix(1 0 0 -1 0 842.1102)">
	<stop  offset="0" style="stop-color:#604596"/>
	<stop  offset="1" style="stop-color:#584092"/>
</linearGradient>
<path style="fill-rule:evenodd;clip-rule:evenodd;fill:url(#SVGID_00000158746304663716545990000000210795607034125185_);" d="
	M327.79,504.17l-134.67,29.79c-37.19,8.22-59.31,39.66-49.4,70.21l202.01-44.68c37.19-8.22,59.3-39.66,49.38-70.21l-67.34,14.9
	L327.79,504.17z"/>
</svg>
